# xmcd
#
# Track frame offsets:
#	150
#	16522
#	34000
#	48947
#	62670
#	77242
#	93335
#	113210
#	128387
#	145557
#	168470
#	186660
#	200965
#	218815
#	235232
#
# Disc length: 3361 seconds
#
# Revision: 0
# Processed by: cddbd v1.5.1PL2 Copyright (c) Steve Scherf et al.
# Submitted via: audiograbber 1.83.01
#
DISCID=c90d1f0f
DTITLE=Various Artist - Sound Choice 8232 Country
DYEAR=1900
DGENRE=Karaoke
TTITLE0=Tracy Byrd - Heaven In My Woman's Eyes
TTITLE1=Clay Walker - Hypnotize The Moon
TTITLE2=Cooter Brown - Pure Bred Redneck
TTITLE3=John Anderson - Paradise
TTITLE4=Lonestar - No News
TTITLE5=Tracy Lawrence - If You Loved Me
TTITLE6=Doug Supernaw - You Still Got Me
TTITLE7=Mark Chesnutt - It Wouldn't Hurt To Have Wings
TTITLE8=Aaron Tippin - Without Your Love
TTITLE9=Ty Herndon and Stephanie Bently - Heart Half Empty
TTITLE10=Diamond Rio - Walkin' Away
TTITLE11=Johnny Cash and June Carter Cash - Jackson
TTITLE12=Little Texas - Country Crazy
TTITLE13=Patty Loveless - You Can Feel Bad
TTITLE14=James Bonamy - She's Got A Mind Of Her Own
EXTD=
EXTT0=
EXTT1=
EXTT2=
EXTT3=
EXTT4=
EXTT5=
EXTT6=
EXTT7=
EXTT8=
EXTT9=
EXTT10=
EXTT11=
EXTT12=
EXTT13=
EXTT14=
PLAYORDER=
